<?xml version="1.0" encoding="UTF-8"?>
<svg version="1.1" xmlns="http://www.w3.org/2000/svg" width="48" height="48">
<path d="M0 0 C3.15335692 0.30777628 4.62181031 0.60338157 6.84375 2.93359375 C8.60671756 5.5988348 10.33464587 8.27246101 12 11 C12.51433594 11.81339844 13.02867188 12.62679688 13.55859375 13.46484375 C17.2133628 19.8529245 18.13645067 25.70777487 17 33 C14.81356301 37.61581142 12.50400196 39.72864085 8 42 C2.45191396 42.82885269 -2.47140883 42.7240695 -7.5625 40.3125 C-10.73434843 37.30331046 -12.68955204 34.658129 -13.50390625 30.30859375 C-13.75542804 17.98402626 -7.78423392 9.11999003 0 0 Z " fill="#ED3A46" transform="translate(22,3)"/>
<path d="M0 0 C4.86027067 2.05188399 6.79613018 5.33828279 9 10 C10.19589121 13.9500649 10.43573922 16.99779979 8.75 20.875 C6.24146669 23.92107616 4.5408943 24.91986751 0.625 25.5 C-3 25 -3 25 -6 22.5625 C-8.37081804 19.18803565 -8.53894266 16.46322568 -7.86328125 12.45703125 C-6.19964145 7.72205644 -3.10794037 3.88695414 0 0 Z " fill="#F6AE02" transform="translate(23,20)"/>
<path d="M0 0 C2.26502506 3.3975376 2.23360545 5.08939358 1.59765625 9.05859375 C1 11 1 11 -1.125 13.5 C-4.75833155 15.39565124 -6.95337474 15.58860004 -11 15 C-13.4375 13.125 -13.4375 13.125 -15 11 C-15 10.34 -15 9.68 -15 9 C-11.399186 6.35234265 -8.35528793 5.66276121 -4 5 C-0.75150023 3.27773504 -0.75150023 3.27773504 0 0 Z " fill="#E97802" transform="translate(31,30)"/>
<path d="M0 0 C0.33 0 0.66 0 1 0 C1.3125 3.3125 1.3125 3.3125 1 7 C-2.07812165 9.63838999 -5.05140205 10.40771031 -9 11 C-9.928125 11.185625 -10.85625 11.37125 -11.8125 11.5625 C-12.534375 11.706875 -13.25625 11.85125 -14 12 C-14.33 11.01 -14.66 10.02 -15 9 C-11.29649944 6.4946908 -8.38428395 5.66717365 -4 5 C-0.75150023 3.27773504 -0.75150023 3.27773504 0 0 Z " fill="#EE8B01" transform="translate(31,30)"/>
<path d="M0 0 C-2 2 -2 2 -5.625 2.125 C-6.73875 2.08375 -7.8525 2.0425 -9 2 C-9.33 1.34 -9.66 0.68 -10 0 C-6.7169902 -1.6415049 -3.57454967 -0.51888624 0 0 Z " fill="#E56006" transform="translate(29,43)"/>
</svg>
