<?xml version="1.0" standalone="no"?>
<!DOCTYPE svg PUBLIC "-//W3C//DTD SVG 20010904//EN"
 "http://www.w3.org/TR/2001/REC-SVG-20010904/DTD/svg10.dtd">
<svg version="1.0" xmlns="http://www.w3.org/2000/svg"
 width="1350.000000pt" height="1350.000000pt" viewBox="0 0 1350.000000 1350.000000"
 preserveAspectRatio="xMidYMid meet">
<metadata>
Created by potrace 1.10, written by Peter Selinger 2001-2011
</metadata>
<g transform="translate(0.000000,1350.000000) scale(0.100000,-0.100000)"
fill="#000000" stroke="none">
<path d="M3465 9806 c-111 -31 -216 -119 -266 -224 l-32 -67 -5 -217 c-2 -120
-8 -218 -12 -218 -4 0 -37 15 -71 33 l-64 32 -445 0 -445 0 -68 -34 c-71 -36
-151 -112 -182 -174 -49 -96 -49 -87 -55 -702 l-5 -580 -305 -5 c-275 -5 -308
-7 -340 -24 -92 -50 -142 -111 -166 -202 -20 -79 -20 -955 0 -1029 20 -73 42
-110 89 -150 84 -72 70 -69 412 -75 l310 -5 5 -580 c5 -512 8 -586 23 -629 39
-112 116 -202 215 -252 l57 -29 443 -3 c382 -2 448 0 474 13 17 8 37 15 43 15
7 0 18 7 25 15 7 8 23 15 35 15 l23 0 4 -212 4 -213 36 -76 c58 -119 152 -195
278 -225 79 -19 760 -19 848 0 35 8 69 19 75 25 6 6 18 11 28 11 23 0 141 111
160 151 59 124 54 32 57 969 2 516 7 859 12 865 6 7 139 77 297 156 l288 144
1495 0 1495 0 288 -144 c158 -79 291 -149 297 -156 5 -6 10 -349 12 -865 3
-934 -2 -849 57 -969 19 -40 137 -151 160 -151 10 0 22 -5 28 -11 30 -30 138
-38 503 -38 453 0 491 7 604 110 42 38 67 72 93 128 l36 76 5 213 c4 212 4
212 27 212 12 0 28 -7 35 -15 7 -8 18 -15 25 -15 6 0 26 -7 43 -15 26 -13 92
-15 474 -13 l443 3 57 29 c98 49 177 142 215 252 15 43 18 117 23 629 l5 580
310 5 c342 6 328 3 412 75 47 40 69 77 89 150 20 74 20 950 0 1029 -24 91 -74
152 -166 202 -32 17 -65 19 -340 24 l-305 5 -6 575 c-6 607 -6 614 -54 707
-31 62 -111 138 -182 174 l-68 34 -450 0 -450 0 -57 -32 c-32 -18 -62 -33 -67
-33 -4 0 -11 98 -13 218 l-5 217 -32 67 c-22 46 -50 84 -91 121 -122 114 -140
117 -615 117 -457 0 -467 -1 -583 -87 -55 -40 -97 -93 -131 -163 l-26 -55 -3
-862 -3 -863 -301 -150 -301 -150 -1487 0 -1487 0 -244 121 c-134 66 -251 124
-259 129 -8 5 -34 19 -57 30 l-42 21 -3 857 -3 857 -23 55 c-52 122 -156 214
-279 246 -69 18 -814 18 -878 0z m1447 -2323 c131 -65 239 -122 241 -128 2 -5
-1 -210 -7 -455 -11 -432 -12 -445 -31 -448 -11 -2 -27 -10 -35 -17 -8 -7 -25
-16 -37 -19 -13 -4 -23 -12 -23 -17 0 -5 -11 -9 -24 -9 -13 0 -29 -7 -36 -15
-7 -8 -21 -15 -31 -15 -10 0 -20 -4 -23 -9 -7 -11 -88 -51 -103 -51 -6 0 -16
-7 -23 -15 -7 -8 -20 -15 -30 -15 -10 0 -23 -7 -30 -15 -7 -8 -20 -15 -30 -15
-16 0 -17 41 -24 578 -3 317 -9 623 -13 680 -5 84 -3 102 8 102 8 0 121 -53
251 -117z m3914 0 c-3 -65 -9 -371 -12 -680 -6 -526 -8 -563 -24 -563 -10 0
-23 7 -30 15 -7 8 -20 15 -30 15 -10 0 -23 7 -30 15 -7 8 -20 15 -30 15 -10 0
-23 7 -30 15 -7 8 -16 15 -21 15 -8 0 -192 88 -229 110 -8 5 -22 11 -31 13
-14 5 -17 46 -23 359 -3 194 -9 394 -12 443 -2 50 -1 95 3 101 12 15 465 242
487 243 17 1 18 -6 12 -116z m-7006 -567 c0 -374 -4 -577 -10 -581 -6 -3 -132
-6 -281 -5 -382 1 -361 -15 -370 290 -9 288 -10 716 -3 762 4 24 19 50 42 73
l35 35 294 0 293 0 0 -574z m10463 538 c27 -27 37 -47 42 -85 8 -54 -3 -924
-12 -953 -3 -10 -12 -27 -22 -38 -37 -45 -55 -47 -340 -48 -149 -1 -275 2
-281 5 -6 4 -10 207 -10 581 l0 574 293 0 294 0 36 -36z m-4131 -539 c-2 -225
-5 -411 -6 -413 -2 -1 -634 -2 -1406 -2 -772 0 -1404 1 -1406 2 -6 7 -16 807
-10 817 5 8 387 10 1419 9 l1412 -3 -3 -410z"/>
</g>
</svg>
