<?xml version="1.0" encoding="iso-8859-1"?>
<!-- Generator: Adobe Illustrator 19.2.0, SVG Export Plug-In . SVG Version: 6.00 Build 0)  -->
<svg version="1.1" id="Layer_1" xmlns="http://www.w3.org/2000/svg" xmlns:xlink="http://www.w3.org/1999/xlink" x="0px" y="0px"
	 viewBox="0 0 40 40" style="enable-background:new 0 0 40 40;" xml:space="preserve">
<g>
	<path style="fill:#8BB7F0;" d="M3,37.5c-0.827,0-1.5-0.673-1.5-1.5V3c0-0.827,0.673-1.5,1.5-1.5h33c0.827,0,1.5,0.673,1.5,1.5v33
		c0,0.827-0.673,1.5-1.5,1.5H3z"/>
	<g>
		<path style="fill:#4E7AB5;" d="M36,2c0.551,0,1,0.449,1,1v33c0,0.551-0.449,1-1,1H3c-0.551,0-1-0.449-1-1V3c0-0.551,0.449-1,1-1
			H36 M36,1H3C1.895,1,1,1.895,1,3v33c0,1.105,0.895,2,2,2h33c1.105,0,2-0.895,2-2V3C38,1.895,37.105,1,36,1L36,1z"/>
	</g>
</g>
<g>
	<path style="fill:#FFFFFF;" d="M11.234,16.5l-4.327-5.2c3.488-3.099,7.941-4.8,12.593-4.8s9.104,1.701,12.593,4.8l-4.327,5.2
		H11.234z"/>
	<g>
		<path style="fill:#4E7AB5;" d="M19.5,7c4.367,0,8.555,1.541,11.895,4.357L27.531,16H11.469l-3.864-4.643
			C10.945,8.541,15.133,7,19.5,7 M19.5,6c-5.139,0-9.8,2.003-13.284,5.252L11,17h17l4.784-5.748C29.3,8.003,24.639,6,19.5,6L19.5,6z
			"/>
	</g>
</g>
<g>
	<polygon style="fill:#36404D;" points="23,10 18,16 21,16 	"/>
</g>
<g>
	<path style="fill:#66798F;" d="M19.5,7c-0.168,0-0.333,0.017-0.5,0.022V10h1V7.022C19.833,7.017,19.668,7,19.5,7z"/>
</g>
<g>
	<path style="fill:#66798F;" d="M13.106,11.371l0.924-0.383l-1.139-2.751c-0.311,0.12-0.619,0.248-0.923,0.385L13.106,11.371z"/>
</g>
<g>
	<path style="fill:#66798F;" d="M26.109,8.238l-1.139,2.751l0.924,0.383l1.139-2.749C26.728,8.486,26.42,8.358,26.109,8.238z"/>
</g>
</svg>
